<svg width="299" height="299" viewBox="0 0 299 299" fill="none" xmlns="http://www.w3.org/2000/svg">
<path d="M298.999 149.5C298.999 232.067 232.065 299 149.5 299C66.9336 299 0 232.068 0 149.5C0 66.934 66.9336 0 149.5 0C232.066 0 298.999 66.934 298.999 149.5Z" fill="white"/>
<path d="M148.252 53.15C153.515 56.168 159.097 60.052 163.347 64.168L161.677 65.837C153.291 64.95 144.459 66.057 136.51 66.179C135.623 65.289 133.837 63.951 135.501 62.833L148.252 53.15ZM296.529 156.787C296.641 160.553 296.997 163.787 295.52 167.641C280.2 171.976 270.137 155.838 255.272 158.272L256.952 166.637C270.705 167.087 279.294 180.207 293.502 179.643C291.484 183.654 294.403 194.221 285.46 189.997C276.178 187.778 269.466 179.643 259.294 179.643C258.067 181.885 258.844 184.989 258.629 187.641C269.36 189.316 277.077 198.339 287.805 200.005C286.796 203.673 285.796 207.78 282.774 210.017C274.047 207.904 267.23 200.106 257.938 200.329L256.284 208.01C265.114 208.236 270.819 216.008 278.755 218.341C278.973 221.581 276.062 224.476 274.385 227.368C267.34 225.263 261.968 219.242 253.919 219.686C253.807 216.669 255.608 213.243 254.928 210.017C245.888 212.692 239.826 204.335 233.126 199.322C232.933 182.917 215.574 172.155 214.658 156.787C214.482 153.723 214.951 150.452 216.354 146.937C222.059 133.813 220.267 116.774 214.011 104.538C212.111 101.318 208.742 98.776 205.603 96.883C210.196 106.566 215.792 118.007 212.999 129.909C212.675 139.1 207.225 147.927 207.162 156.787C207.141 159.946 207.819 163.105 209.645 166.295C216.918 179.327 230.003 191.663 225.083 208.007C223.73 213.027 219.701 216.909 218.696 222.018C227.205 229.029 235.25 236.929 246.539 237.374C250.562 234.818 248.327 223.483 256.603 228.711L268.685 234.724C267.805 237.942 265.097 240.826 262.644 243.042C258.06 240.822 253.588 238.161 247.872 238.378C246.186 240.157 244.736 242.154 244.865 244.707C248.887 245.366 252.577 247.055 255.937 249.395C254.377 252.738 251.337 254.833 248.541 257.393L239.169 254.059C237.604 256.287 234.353 258.628 235.494 261.073C237.609 261.974 239.955 263.192 241.512 264.753C237.375 269.202 232.131 272.064 227.085 275.084C222.739 260.951 208.419 251.042 209.648 234.698L208.983 234.037C205.616 237.802 206.741 243.823 206.958 248.709C210.987 258.946 220.596 266.853 222.053 278.079C220.371 280.968 216.577 281.544 213.668 282.767C214.005 262.527 183.147 247.176 202.936 226.703C209.535 216.678 220.593 207.111 216.675 193.309C212.652 179.983 198.425 171.726 198.55 156.787L198.572 155.622C201.813 140.043 211.657 123.466 203.604 106.893C201.36 100.227 196.345 92.652 189.524 89.866C199.693 101.446 203.725 120.34 197.907 135.922C194.975 142.12 190.939 149.504 190.533 156.79H190.509C190.293 160.595 191.074 164.379 193.542 167.967C201.263 180.431 214.674 194.122 206.959 210.365C198.239 223.375 183.032 236.609 191.525 253.745C197.674 263.979 207.186 274.191 204.62 286.772L194.557 290.106C201.266 266.64 168.388 252.852 182.152 229.378C190.649 216.808 205.847 205.014 197.244 188.331C192.1 177.994 181.473 171.876 181.809 158.958L182.175 156.789C185.637 138.468 199.636 121.126 189.848 101.548C187.276 95.767 182.136 89.873 176.43 86.533L176.086 86.876C187.497 97.889 190.969 116.009 184.816 130.575C181.946 139.121 175.645 147.634 174.365 156.792C173.756 161.11 174.269 165.585 176.777 170.299C184.044 181.748 196.788 193.893 188.836 208.695C180.461 220.921 166.48 232.817 172.064 248.716C178.216 262.626 191.06 275.877 184.125 293.125L173.741 295.458C182.012 278.649 169.61 261.97 162.345 247.392C153.506 226.477 181.334 216.462 181.78 197.34C181.674 184.998 168.486 177.99 165.699 166.644C159.991 161.853 154.074 168.549 147.251 167.306C142.213 168.313 134.475 160.407 131.468 168.977C127.887 181.541 111.571 190.778 118.742 205.68C125.565 218.923 141.985 228.607 136.5 245.745C131.589 261.753 115.366 276.995 125.427 295.458C121.294 294.126 113.576 296.676 113.687 290.107C107.317 267.748 134.483 254.722 126.093 232.375C122.188 218.687 104.396 211.125 108.313 194.662C111.209 181.11 126.494 171.636 124.35 156.791C124.176 155.548 123.868 154.276 123.429 152.95C117.724 136.931 106.084 120.908 113.022 102.212C114.927 96.872 118.731 92.312 122.074 87.539C111.004 93.433 105.419 105.896 105.648 118.575C105.166 132.363 115.403 144.174 116.859 156.791C117.432 161.883 116.594 167.097 113.022 172.628C105.76 182.432 96.2623 192.769 100.617 205.678C104.757 218.699 121.08 226.587 120.074 241.722C119.963 259.625 99.0536 270.772 104.98 290.794L94.5727 287.435C90.4406 269.643 109.446 260.54 109.664 244.078C112.353 225.147 88.0846 218.123 89.541 199.669C89.4365 185.648 101.842 176.768 107.321 164.974C108.261 162.104 108.573 159.392 108.448 156.792C107.776 143.752 95.9658 133.557 97.9258 118.896C98.5852 108.106 102.275 98.648 109.322 90.533C99.5994 94.419 95.5829 105.554 92.8971 114.9C88.2364 129.886 99.3621 143.366 100.478 156.793C100.972 162.722 99.5159 168.617 93.9083 174.644C85.8532 184.088 77.6845 196.004 83.5002 208.697C89.6586 222.702 109.006 233.603 100.615 251.071C96.0362 262.086 85.0732 270.424 85.5235 283.435C82.6187 282.211 79.6053 280.991 77.1367 278.772C77.1367 262.2 100.832 251.849 89.542 234.384C88.5419 237.83 88.3268 242.513 87.5438 246.406C83.6258 256.534 75.2431 264.641 72.106 275.111C66.8603 273.097 61.3753 268.865 57.012 264.416L63.0559 260.736C62.3844 258.507 60.5983 256.618 59.0363 254.727C55.1113 254.178 52.5342 256.74 49.2986 257.744C46.5034 255.292 43.8056 253.066 41.5772 250.063C43.5835 244.378 59.2595 249.079 51.3179 239.732C45.9566 236.397 40.5751 241.161 35.8802 243.385L29.5157 235.387C34.9946 232.053 40.4595 227.37 47.2743 228.713C48.9539 231.722 49.0705 236.147 52.306 237.718C63.8248 237.495 71.9864 228.827 80.8165 222.039C74.6621 212.928 69.6525 200.35 75.1194 189.332C79.4998 178.291 90.913 168.992 91.4307 156.786C91.5473 154.008 91.112 151.085 89.8908 147.939C83.856 132.474 81.7261 111.573 93.2449 97.885C86.982 99.559 83.2891 107.325 81.1613 113.222C74.2369 128.323 82.9946 142.313 83.2972 156.785C83.3384 159.388 83.1263 161.997 82.492 164.625C76.5638 176.527 66.9588 186.97 65.3988 200.666C58.576 204.996 52.9744 212.568 43.2528 210.013C42.911 212.569 43.694 216.465 44.5856 219.36C36.8762 219.038 31.6194 224.691 25.1283 227.361C21.6706 226.257 20.771 221.81 19.4322 218.698C27.03 216.145 32.511 208.567 41.2345 208.687C42.2456 205.892 40.6676 203.331 40.2223 200.664C29.3709 195.872 12.1702 224.352 10.7238 199.66C21.5671 198.992 28.4965 188.978 39.2353 187.98L39.5559 179.982C27.3687 178.757 19.5287 191.222 7.34653 189.993L4.65982 179.32C18.7517 180.196 27.1476 167.632 40.5681 166.956C42.3512 164.623 42.5663 161.174 42.91 157.951C28.2613 156.052 18.209 172.203 2.66162 167.298C2.66162 167.298 2.12589 160.576 1.83541 156.786H1.85651C1.75098 155.304 1.65046 154.271 1.65046 154.271C15.5142 159.623 27.6954 149.716 39.5559 144.602C42.5723 143.704 47.2763 145.261 48.6292 141.927C48.5116 139.368 53.2026 136.376 49.2976 134.59C31.9581 132.249 20.4394 153.056 2.65961 143.595L1.32581 140.92C5.02468 90.645 33.5241 42.039 80.8165 18.12C99.9702 7.23 123.766 1.679 147.763 1.482C176.724 1.243 205.987 8.801 227.756 24.132C248.896 37.033 269.118 58.294 280.092 79.877C290.587 98.787 295.418 120.006 296.86 142.596C278.518 156.384 266.214 129.606 247.536 135.599C248.543 138.497 249.099 141.495 251.234 143.942C267.788 143.826 279.187 161.07 296.514 154.274L296.529 156.787ZM85.8421 94.869C74.2118 87.302 59.4665 94.427 48.6272 98.548C47.6211 88.42 43.487 79.193 34.867 72.519C34.0307 72.105 32.8748 71.234 31.8335 71.17C31.2103 71.131 30.6173 71.381 30.1569 72.174C34.0639 96.087 18.4391 112.773 7.36664 130.913C11.0535 133.911 16.9767 133.463 21.4485 132.582C33.1864 127.912 44.3675 119.784 58.3438 122.57C62.4769 115.562 69.4213 108.774 75.1154 103.212C78.5942 100.217 83.3735 98.315 85.8421 94.869ZM121.406 109.887C121.183 111.327 121.517 113.894 123.749 112.902C127.22 108.119 133.367 111.903 137.166 112.24V110.894C135.081 107.637 130.793 106.001 126.437 106.164C125.432 106.199 124.411 106.345 123.428 106.572C121.971 106.894 120.956 108.221 121.406 109.887ZM176.081 95.556C172.959 88.657 165.802 85.865 159.308 84.197C156.125 83.807 152.821 83.543 149.544 83.512C148.93 83.506 148.317 83.498 147.706 83.512C138.54 83.696 129.782 86.037 124.432 93.543C123.664 95.662 120.288 98.638 123.423 100.537C130.468 100.089 138.507 99.21 143.203 105.225C143.203 110.57 146.672 117.681 140.86 120.24C136.044 115.804 130.341 122.128 125.102 118.568C122.638 117.12 121.079 118.81 120.07 120.923C118.613 134.714 125.871 149.934 138.84 157.607C144.095 159.493 151.161 161.287 156.645 158.611C169.839 152.499 175.304 138.491 177.76 125.585C177.431 123.129 177.548 118.343 174.085 118.227C170.174 120.688 164.469 119.234 160.324 118.227C157.874 119.014 157.761 122.581 154.972 123.257L153.272 121.908C151.817 115.799 150.919 107.119 156.627 102.892C163.006 100.333 170.497 99.215 177.094 101.223C178.325 99.111 176.424 97.448 176.081 95.556ZM169.349 106.525C168.906 106.536 168.475 106.558 168.039 106.572C165.696 108.127 158.868 107.009 161.332 112.24C165.584 108.894 171.51 111.239 175.759 112.902C177.33 112.126 176.989 110.568 177.093 109.225C175.729 106.7 172.469 106.463 169.349 106.525ZM218.032 59.491C209.756 59.054 202.825 63.728 195.22 65.843C194.558 59.405 199.474 52.606 200.596 46.143C188.3 46.93 178.561 54.293 168.389 60.175C166.035 54.516 163.674 48.828 161.336 43.148L174.754 30.463L175.098 28.792L156.974 27.788C153.852 22.346 152.622 15.791 148.932 10.785C145.913 16.458 143.884 22.462 140.868 28.13L122.766 29.137V30.463L136.505 42.805C134.825 49.149 133.264 56.042 129.131 60.837C121.081 56.04 113.145 50.819 104.319 47.488C102.196 46.806 99.1682 45.697 97.2675 47.146C100.059 53.266 103.968 59.849 103.31 66.529C99.6185 65.853 96.7166 63.498 93.2479 62.508C89.0998 61.382 84.1777 59.182 80.1531 60.52C86.8634 69.859 92.3403 79.633 94.235 90.872C116.496 80.183 142.456 74.304 169.404 78.872C182.035 80.872 193.65 85.991 204.945 90.208C205.386 78.423 212.877 68.953 218.032 59.491ZM256.259 123.575C267.655 126.576 279.087 138.929 291.155 130.914C280.645 113.563 265.003 97.54 269.353 74.85C269.808 73.301 268.802 71.733 267.355 71.513C260.537 74.285 255.257 80.968 252.559 87.537C251.449 91.422 250.792 95.552 249.229 99.214C241.061 94.985 232.346 90.888 222.395 91.878C218.807 92.323 213.662 92.557 213 96.222C224.293 102.226 233.579 112.246 240.499 122.916C245.318 122.134 251.227 122.802 256.259 123.575ZM136.843 139.256L137.165 141.267C141.534 144.163 142.878 149.071 148.927 148.625C154.291 148.942 158.316 143.942 160.989 139.94C153.73 138.943 144.897 140.486 136.843 139.256ZM142.884 130.251C143.102 131.142 142.33 132.477 143.55 132.927C147.128 132.154 153.61 134.821 155.608 130.594C154.213 129.039 151.935 128.333 149.545 128.333C147.156 128.333 144.676 129.026 142.884 130.251Z" fill="#007042"/>
<path opacity="0.99" d="M136.852 126.391H161.369V136.412H136.852V126.391Z" fill="white"/>
<path d="M141.381 131.749C144.549 132.495 145.333 133.613 147.837 133.925C150.498 133.878 150.114 133.34 154.757 131.746C155.062 131.639 155.481 130.97 154.961 130.457C152.078 127.61 150.086 129.644 148.279 129.698C145.882 129.724 143.633 127.656 141.291 130.344C140.892 130.89 140.684 131.426 141.381 131.749Z" fill="#007042"/>
</svg>
