<svg width="254" height="254" viewBox="0 0 254 254" fill="none" xmlns="http://www.w3.org/2000/svg">
<path d="M126.889 10.5233C123.767 10.9207 119.963 11.5452 118.373 11.8858C115.535 12.4535 110.709 13.4754 103.045 15.065C97.9357 16.0868 86.9789 19.4363 82.6075 21.253C80.7341 21.991 78.5768 22.8426 77.782 23.0697C73.4674 24.4322 60.0694 31.1879 54.7897 34.651C46.274 40.3281 45.0251 41.2364 41.4485 44.3021C25.212 58.211 14.0848 75.1287 8.69158 94.0335C6.19365 102.833 5.62594 107.318 5.68271 118.729C5.68271 130.367 6.25042 134.625 8.18064 137.18C11.5869 141.608 14.1984 139.905 14.1984 133.262C14.1984 120.886 16.9234 105.785 21.3515 93.7497C29.5266 71.4954 45.8766 53.1016 67.109 42.2015C75.9085 37.7166 78.52 36.7515 88.5685 34.14C91.7476 33.2885 93.7914 33.402 93.5643 34.4239C93.4508 34.9916 89.1362 37.2057 82.494 40.0442C64.1569 47.9922 58.5933 51.4552 49.2261 60.6521C36.1688 73.4256 28.675 85.9152 23.7927 103.06C21.4651 111.178 20.7838 120.489 21.1812 138.315C21.6354 157.163 22.2599 163.067 24.4739 169.823C26.4041 175.67 31.2865 185.946 34.1818 190.204C37.588 195.086 49.7938 207.235 54.8465 210.698C55.5277 211.152 58.0824 212.969 60.5236 214.672C69.834 221.144 78.7471 225.742 86.0138 227.673C91.3502 229.149 101.172 231.136 103.045 231.136C104.862 231.136 105.997 232.555 105.032 233.69C104.237 234.655 99.1279 234.826 94.8133 234.031C82.2101 231.703 72.9564 228.694 62.7376 223.699C51.4402 218.135 39.1209 207.349 29.0724 194.121C21.976 184.81 20.1593 183.164 18.513 184.583C15.3338 187.195 18.4562 197.357 25.4958 207.292C31.7974 216.148 44.6844 227.673 53.6543 232.441C72.3887 242.433 95.5513 246.521 118.373 243.909C136.54 241.752 152.493 236.926 168.9 228.467C172.476 226.651 173.895 225.742 179.572 221.939C180.481 221.314 182.297 220.065 183.717 219.1C187.634 216.432 198.761 205.532 202.508 200.65C216.758 181.972 224.422 165.281 227.147 147.114C228.679 137.009 227.714 112.711 225.33 99.7106C222.775 86.1423 220.504 79.9543 214.43 70.0761C210.342 63.4907 209.548 62.4688 203.757 56.6782C190.983 43.9047 170.943 32.4937 158.34 30.7338C147.327 29.201 146.021 28.9171 144.829 27.8385C142.16 25.3405 143.92 23.6942 148.859 24.0916C161.349 25.1134 171.341 28.2926 184.228 35.4458C198.364 43.2234 209.377 51.7391 216.076 60.0844C226.011 72.4037 233.619 93.2955 235.662 113.62C236.684 123.668 236.003 145.922 234.527 153.075C231.348 168.177 229.247 174.648 224.195 184.81C214.714 203.829 200.691 218.022 176.109 233.35C172.93 235.393 171.738 236.926 172.249 238.346C172.533 239.084 173.214 239.197 175.599 238.913C181.332 238.289 189.161 234.097 198.591 227.218C204.905 222.613 204.931 222.383 208.81 219.1C211.899 216.486 225.898 202.977 230.042 197.641C238.387 186.797 242.929 178.225 246.335 166.871C250.65 152.224 252.467 135.987 251.899 116.742C251.672 110.497 251.274 104.366 250.99 103.117C250.707 101.868 249.969 98.2913 249.287 95.1689C245.484 77.286 236.344 58.211 225.103 44.6427C210.172 26.6463 191.154 16.4275 162.371 11.0342C156.353 9.95557 134.099 9.61495 126.889 10.5233ZM153.06 56.7349C154.196 57.4729 154.934 59.4032 155.615 63.4339C155.956 65.5912 156.751 68.6001 157.261 70.1897L158.227 73.0282L170.092 77.059C182.354 81.2033 184.057 81.8845 192.8 86.1423C199.158 89.208 200.691 90.684 200.124 93.1252C199.669 95.1689 197.001 96.8721 195.128 96.3611C194.503 96.1908 183.944 96.3044 171.795 96.645C151.13 97.1559 127.116 98.632 117.806 99.9945C115.648 100.335 110.879 100.96 107.303 101.414C100.434 102.265 93.7346 103.174 80.0528 105.104C75.5111 105.728 69.8908 106.523 67.5632 106.807C65.2356 107.148 60.921 107.772 58.0256 108.283C53.2001 109.078 52.5756 109.078 51.3266 108.226C49.7938 107.261 49.8506 107.261 50.3048 106.012C51.3834 103.174 71.8778 91.5356 86.2976 85.5179C89.8742 83.985 93.1669 82.5658 93.5643 82.2251C93.9617 81.9413 96.7435 78.0241 99.6956 73.5392C103.386 67.9756 105.543 65.3074 106.338 65.137C107.019 65.0235 112.185 63.9448 117.806 62.8094C123.426 61.674 128.819 60.6521 129.727 60.4818C130.693 60.3115 134.78 59.4599 138.811 58.5516C148.803 56.3375 151.925 55.9401 153.06 56.7349ZM115.705 105.842C115.819 106.41 115.308 107.829 114.57 108.964C113.775 110.1 112.412 112.2 111.504 113.62C109.12 117.253 105.77 120.432 104.351 120.432C102.704 120.432 101.058 118.842 101.058 117.196C101.058 113.62 104.975 109.021 110.425 106.296C114.115 104.366 115.421 104.309 115.705 105.842ZM186.669 114.301C187.634 115.266 187.52 117.48 186.215 121.227C185.079 124.349 185.079 124.576 185.988 125.598C186.499 126.223 187.52 126.677 188.202 126.677C189.905 126.677 192.176 128.55 191.608 129.459C190.87 130.651 186.669 132.354 184.341 132.354C183.092 132.354 181.276 131.957 180.197 131.446C178.437 130.594 178.21 130.594 176.62 131.729C172.93 134.398 167.821 136.385 165.096 136.214C163.677 136.158 162.144 136.385 161.69 136.725C158.113 139.621 153.117 140.87 144.545 140.926C141.366 140.926 137.619 141.153 136.143 141.381C131.544 142.119 130.522 140.302 133.191 136.101C134.439 134.171 141.706 127.472 147.043 123.327C147.837 122.703 148.348 122.135 148.178 121.965C148.008 121.795 146.134 121.965 143.92 122.249C141.763 122.533 139.151 122.646 138.073 122.419C135.859 122.022 133.985 120.319 133.985 118.786C133.985 116.742 135.518 115.89 139.265 115.89C141.195 115.89 144.545 115.493 146.759 115.039C148.916 114.585 152.266 114.187 154.082 114.187C158.17 114.187 159.532 115.152 159.532 117.991C159.532 119.751 158.737 120.773 152.663 126.961C148.916 130.821 146.021 134.057 146.305 134.227C147.27 134.738 155.899 135.136 157.772 134.738L159.759 134.284L159.589 131.162C159.476 128.437 159.703 127.699 161.406 125.258C163.904 121.567 169.127 117.366 173.157 115.777C174.86 115.096 178.21 114.358 180.538 114.187C182.865 113.96 185.079 113.79 185.42 113.733C185.704 113.676 186.271 113.903 186.669 114.301ZM84.1403 115.379C87.6034 116.742 90.6122 119.353 91.7476 121.965C92.2018 122.987 92.5424 125.314 92.5424 127.131C92.5424 133.716 87.4898 139.905 79.5419 143.027C73.5241 145.411 71.3101 145.752 69.4934 144.56C68.6986 144.049 67.9606 143.708 67.9038 143.822C67.7903 143.935 67.2225 145.411 66.5413 147.114C58.3663 168.063 56.0954 171.98 53.2569 169.425C52.235 168.517 52.1214 167.949 52.4053 164.146C53.0298 155.687 58.8204 139.223 64.7814 129.061C66.3142 126.507 67.5632 124.292 67.5632 124.236C67.5632 124.122 66.7116 124.179 65.633 124.292C64.1001 124.463 63.5324 124.292 63.0215 123.327C62.1699 121.738 62.6241 120.432 64.7814 118.388C68.7554 114.585 78.2929 113.052 84.1403 115.379ZM132.339 122.192C133.815 123.668 133.474 125.428 130.976 128.891C128.989 131.616 128.195 132.524 122.234 138.656L118.146 142.857L124.505 142.913C128.024 142.913 134.212 143.084 138.243 143.197C143.466 143.368 146.418 143.197 148.348 142.63C153.344 141.21 153.287 144.276 148.292 146.717C144.374 148.704 140.117 149.329 128.024 149.612C120.928 149.839 115.875 150.237 113.264 150.861C104.919 152.848 103.329 152.564 103.329 149.101C103.329 146.717 105.657 143.879 114.343 135.76C122.29 128.38 122.858 127.642 120.19 128.437C117.635 129.175 112.185 129.061 110.425 128.266C109.631 127.926 108.836 126.961 108.609 126.223C107.984 123.725 109.801 122.93 117.068 122.419C120.587 122.192 124.618 121.795 126.037 121.567C130.238 120.886 131.09 120.943 132.339 122.192ZM105.032 124.747C106.338 128.153 105.202 132.978 100.831 142.175C99.0711 145.865 97.6518 149.272 97.6518 149.839C97.6518 152.451 94.5862 153.019 92.4857 150.748C91.2935 149.499 91.1232 148.761 91.1232 145.241C91.1232 141.551 91.3502 140.756 93.3372 137.18C95.7216 132.865 101.455 124.406 102.477 123.725C103.556 122.93 104.521 123.271 105.032 124.747ZM170.319 147.114C170.319 148.023 169.865 149.669 169.354 150.805C168.843 151.883 168.559 152.962 168.786 153.132C168.956 153.359 171.284 152.962 173.895 152.337C180.083 150.748 184.795 150.18 185.306 150.975C186.044 152.167 181.73 154.211 167.196 159.718C165.153 160.512 164.869 160.91 163.79 164.203C163.109 166.19 162.144 168.858 161.576 170.107C161.008 171.356 159.93 174.365 159.192 176.806C156.183 186.23 154.764 188.103 153.287 184.583C152.266 182.142 152.89 174.819 154.593 168.12C156.069 162.443 155.956 161.875 153.401 161.875C151.641 161.875 149.2 159.377 149.711 158.071C150.449 155.914 151.13 155.63 155.218 155.63H159.362L162.03 151.429C165.323 146.149 167.651 144.049 169.24 144.844C169.921 145.241 170.319 146.036 170.319 147.114ZM119.622 154.268C119.793 154.779 119.282 157.901 118.43 161.25C116.613 168.46 116.557 169.539 117.976 168.971C118.487 168.744 119.565 168.404 120.247 168.233C122.347 167.779 121.666 170.334 119.225 171.923C115.762 174.251 115.364 174.819 114.967 177.601C114.74 179.077 114.229 181.745 113.832 183.448C113.434 185.151 112.923 187.252 112.753 188.103C112.128 190.771 109.744 193.099 107.53 193.099C104.294 193.099 103.159 189.409 104.464 182.88C104.691 181.461 104.862 180.269 104.748 180.155C104.691 180.098 102.08 180.836 99.0143 181.915L93.394 183.789L91.6341 190.885C89.6471 198.833 88.682 200.99 86.5247 202.693C84.5945 204.226 82.7778 204.226 81.4153 202.693C80.0528 201.16 80.0528 194.689 81.4153 190.658C82.9481 186.173 82.721 185.378 79.9393 184.981C76.8736 184.583 74.6028 182.313 75.5111 180.609C76.3059 179.077 78.5768 177.998 82.7778 177.146C85.8435 176.522 86.4112 176.181 86.695 174.932C87.1492 173.002 92.656 162.443 94.8133 159.32C98.0492 154.608 100.547 153.189 101.342 155.573C101.796 156.993 99.8659 164.941 97.9925 169.766C97.1409 171.81 96.5164 173.683 96.5164 173.967C96.5164 174.535 99.2414 174.137 104.01 172.832C107.189 171.98 107.189 171.98 108.495 168.46C110.596 162.84 113.832 156.595 115.535 154.892C117.295 153.189 119.055 152.905 119.622 154.268ZM148.292 160.342C148.462 161.08 148.178 164.486 147.781 167.893C147.327 171.299 147.099 175.67 147.27 177.601C147.497 180.439 147.383 181.12 146.645 181.404C145.169 181.972 142.387 179.928 140.968 177.26C140.23 175.841 139.549 174.648 139.435 174.535C139.322 174.365 137.959 175.614 136.483 177.203C131.658 182.369 126.208 184.186 123.199 181.688C122.007 180.666 121.78 180.042 121.836 177.26C121.836 175.386 122.404 172.605 123.199 170.447L124.561 166.814L123.256 165.792C121.666 164.486 122.29 163.351 124.959 162.783C127.57 162.272 129.387 162.954 130.295 164.77C131.26 166.587 131.431 170.788 130.579 172.889C129.841 174.932 130.466 174.762 134.156 171.867C137.619 169.198 140.628 165.849 142.955 162.159C144.602 159.547 145.169 159.036 146.816 159.036C147.667 159.036 148.121 159.434 148.292 160.342Z" fill="#EE3A43"/>
<path d="M175.144 121.511C172.93 122.476 168.616 126.677 168.616 127.812C168.616 128.721 169.637 128.494 173.498 126.677C176.336 125.371 177.188 124.69 177.472 123.441C177.699 122.589 178.096 121.511 178.437 121.113C179.232 120.091 177.869 120.262 175.144 121.511Z" fill="#EE3A43"/>
<path d="M74.0918 123.157C73.9215 123.327 73.808 124.236 73.808 125.144C73.808 126.052 72.6725 130.197 71.2533 134.398C68.3579 142.913 68.3012 143.368 69.7204 142.63C70.2314 142.346 72.3319 141.437 74.3189 140.529C78.8038 138.485 83.1184 134.455 83.97 131.502C84.4242 129.743 84.3674 129.004 83.459 127.301C82.8913 126.109 81.6991 124.86 80.7908 124.406C78.9741 123.554 74.546 122.76 74.0918 123.157Z" fill="#EE3A43"/>
<path d="M4.09311 150.975C2.16289 153.019 1.59518 156.368 2.27643 161.25C3.35508 168.858 5.11499 172.207 9.08896 174.194C12.1546 175.784 14.2551 175.841 15.6176 174.365C16.526 173.399 16.526 172.775 15.9583 167.438C15.6176 164.203 15.1635 160.172 14.9932 158.469C14.3687 152.508 12.4952 150.01 8.29417 149.556C5.96655 149.272 5.56915 149.385 4.09311 150.975Z" fill="#EE3A43"/>
<path d="M216.804 224.045V219.395H215.021V218.773H219.309V219.395H217.519V224.045H216.804Z" fill="#EE3A43"/>
<path d="M220.025 224.045V218.773H221.102L222.382 222.506C222.5 222.854 222.587 223.114 222.641 223.287C222.702 223.095 222.798 222.813 222.928 222.441L224.223 218.773H225.187V224.045H224.497V219.632L222.925 224.045H222.279L220.715 219.557V224.045H220.025Z" fill="#EE3A43"/>
</svg>
