<svg width="15" height="15" viewBox="0 0 15 15" fill="none" xmlns="http://www.w3.org/2000/svg">
<path d="M2.63998 1.27L7.49998 6.13L12.34 1.29C12.4248 1.19972 12.527 1.12749 12.6404 1.07766C12.7538 1.02783 12.8761 1.00141 13 1C13.2652 1 13.5196 1.10536 13.7071 1.29289C13.8946 1.48043 14 1.73478 14 2C14.0023 2.1226 13.9796 2.24439 13.9331 2.35788C13.8867 2.47138 13.8176 2.57419 13.73 2.66L8.83998 7.5L13.73 12.39C13.8948 12.5512 13.9914 12.7696 14 13C14 13.2652 13.8946 13.5196 13.7071 13.7071C13.5196 13.8946 13.2652 14 13 14C12.8725 14.0053 12.7454 13.984 12.6266 13.9375C12.5078 13.8911 12.4 13.8204 12.31 13.73L7.49998 8.87L2.64998 13.72C2.56549 13.8073 2.46454 13.8769 2.35298 13.925C2.24142 13.9731 2.12144 13.9986 1.99998 14C1.73476 14 1.48041 13.8946 1.29287 13.7071C1.10534 13.5196 0.99998 13.2652 0.99998 13C0.997648 12.8774 1.0204 12.7556 1.06682 12.6421C1.11325 12.5286 1.18239 12.4258 1.26998 12.34L6.15998 7.5L1.26998 2.61C1.10516 2.44876 1.00852 2.23041 0.99998 2C0.99998 1.73478 1.10534 1.48043 1.29287 1.29289C1.48041 1.10536 1.73476 1 1.99998 1C2.23998 1.003 2.46998 1.1 2.63998 1.27Z" fill="#E65D03"/>
</svg>
