<svg width="148" height="148" viewBox="0 0 148 148" fill="none" xmlns="http://www.w3.org/2000/svg">
<path d="M122.6 71.94L51.42 0.780002C51.053 0.413002 50.585 0.162002 50.076 0.0600021C49.566 -0.0409979 49.038 0.0100021 48.558 0.208002C48.078 0.406002 47.667 0.741002 47.377 1.172C47.087 1.603 46.932 2.111 46.93 2.63V62.47L25.37 40.93C25.002 40.562 24.533 40.312 24.023 40.21C23.513 40.108 22.984 40.16 22.503 40.36C22.023 40.559 21.612 40.896 21.323 41.328C21.034 41.761 20.88 42.27 20.88 42.79V104.58C20.876 106.515 21.254 108.432 21.994 110.221C22.733 112.009 23.82 113.633 25.19 115L53.24 143C56.003 145.75 59.742 147.295 63.64 147.3H84.17C88.066 147.298 91.802 145.752 94.56 143L122.61 115C123.975 113.636 125.058 112.017 125.796 110.234C126.534 108.451 126.912 106.54 126.91 104.61V82.34C126.912 80.408 126.532 78.495 125.792 76.71C125.053 74.925 123.968 73.304 122.6 71.94Z" fill="#E65D03"/>
<path d="M100.89 98C100.887 99.166 100.423 100.284 99.6 101.11L77 123.79C76.591 124.203 76.104 124.53 75.568 124.754C75.031 124.977 74.456 125.093 73.875 125.093C73.294 125.093 72.718 124.977 72.182 124.754C71.646 124.53 71.159 124.203 70.75 123.79L48.2 101.08C47.38 100.263 46.913 99.157 46.9 98V89.34C46.901 88.76 47.016 88.186 47.239 87.65C47.462 87.115 47.789 86.629 48.2 86.22L56.32 78.1C57.148 77.274 58.27 76.81 59.44 76.81C60.61 76.81 61.731 77.274 62.56 78.1L73.91 89.46L85.24 78.1C86.068 77.274 87.19 76.81 88.36 76.81C89.53 76.81 90.651 77.274 91.48 78.1L99.59 86.22C100.001 86.629 100.328 87.115 100.551 87.65C100.774 88.186 100.889 88.76 100.89 89.34V98Z" fill="#FFDB1C"/>
</svg>
